<?xml version="1.0"?>
<svg xmlns="http://www.w3.org/2000/svg" xmlns:xlink="http://www.w3.org/1999/xlink" xmlns:svgjs="http://svgjs.com/svgjs" version="1.1" width="512" height="512" x="0" y="0" viewBox="0 0 512.001 512.001" style="enable-background:new 0 0 512 512" xml:space="preserve" class=""><g><g xmlns="http://www.w3.org/2000/svg"><path d="m269.448 160.073c-5.039-10.254-21.855-10.254-26.895 0l-24.316 49.263-54.404 7.91c-5.625.82-10.342 4.775-12.1 10.21-1.758 5.42-.293 11.382 3.809 15.366l39.346 38.364-9.316 54.17c-.967 5.625 1.348 11.309 5.977 14.663 4.629 3.384 10.752 3.794 15.791 1.143l48.662-25.562 48.662 25.562c5.217 2.747 11.332 2.113 15.791-1.143 4.629-3.354 6.943-9.038 5.977-14.663l-9.316-54.17 39.346-38.364c4.102-3.984 5.566-9.946 3.809-15.366-1.758-5.435-6.475-9.39-12.1-10.21l-54.404-7.91z" fill="#00960f" data-original="#000000" style="" class=""/><path d="m36.635 267.71-22.939 2.036c-8.174.732-14.268 7.896-13.652 16.084 1.113 14.502 2.754 26.133 5.068 36.167 4.365 22.046 15.958 41.191 32.481 49.702 30.841 17.324 55.211-6.74 58.213-7.954 5.683 8.34 11.694 15.532 17.988 21.826-11.924 4.512-22.178 11.953-29.59 21.621l-14.941 19.863c-4.629 6.152-3.867 14.78 1.758 20.01 19.634 18.221 37.974 33.882 63.398 33.882 27.184 0 48.137-18.783 53.584-45.571l2.285-10.811c2.197.322 4.424.571 6.68.776 7.441.601 15.498-5.347 16.26-13.623.732-8.247-5.361-15.527-13.623-16.26-46.893-4.116-97.657-47.618-102.48-118.169-4.136-47.628 17.9-102.405 68.701-128.994 12.07-5.273 22.354-14.971 31.582-29.971 20.09-34.407 9.388-56.975 10.488-73.301-.607-8.37-7.894-14.678-16.406-13.901-34.488 3.323-64.418 12.202-77.432 44.81-7.412 16.919-6.299 37.075 2.93 53.848l5.918 10.942c-6.357 5.493-12.305 11.602-17.754 18.208-3.896-11.777-9.961-21.987-17.637-29.59l-17.49-16.978c-6.589-6.343-17.264-5.437-22.617 1.978-6.65 9.229-13.623 19.146-18.926 29.648-20.72 37.017-9.684 87.631 30.498 98.159l9.082 2.476c-1.318 9.858-1.758 19.863-1.201 29.854-10.548-5.317-19.797-7.632-30.226-6.767z" fill="#00960f" data-original="#000000" style="" class=""/><path d="m397.71 76.372c-7.676-19.175-24.932-34.277-44.531-39.287-9.668-2.827-20.186-4.717-33.076-5.962-8.615-.806-15.808 5.643-16.406 13.901-3.118 31.415-3.763 48.754 10.635 73.623 9.053 14.663 19.336 24.36 30.352 29.106 52.932 27.66 73.978 81.422 69.727 129.829-4.113 59.711-44.879 112.798-102.422 117.876-8.262.732-14.355 8.013-13.623 16.26.732 8.276 8.672 14.282 16.26 13.623 2.227-.19 4.453-.454 6.65-.762l2.256 10.693c5.435 26.673 26.082 45.674 53.789 45.674 12.686 0 25.605-4.102 36.387-11.895 9.727-6.343 18.252-14.019 26.836-21.973 5.654-5.229 6.416-13.887 1.787-20.024l-14.971-19.863c-.029-.029-.029-.059-.059-.073-7.295-9.58-17.549-17.021-29.531-21.548 6.378-6.42 12.248-13.358 17.988-21.826 3.045 1.233 28.431 25.365 58.744 8.218 17.021-8.774 28.057-27.92 32.335-49.57 2.432-10.737 4.072-22.368 5.127-36.606.586-8.174-5.479-15.322-13.652-16.04l-22.939-2.036c-.029 0-.059 0-.117-.015-10.283-.82-19.917 1.45-30.551 6.826.527-10.005.088-20.024-1.23-29.897 3.031-1.553 35.568-4.026 46.494-39.199 6.211-19.219 3.574-42.759-6.592-60.864-5.537-10.957-12.217-20.522-19.16-30.19-5.452-7.552-16.177-8.267-22.617-2.007 0 0-17.578 17.036-17.607 17.065-7.646 7.529-13.682 17.725-17.578 29.517-5.449-6.621-11.367-12.715-17.725-18.223l5.889-10.84c9.254-16.876 10.367-37.032 3.131-53.511z" fill="#00960f" data-original="#000000" style="" class=""/></g></g></svg>
